<?xml version="1.0" encoding="UTF-8" standalone="no"?>
<!-- Created with Inkscape (http://www.inkscape.org/) -->

<svg
   width="512"
   height="512"
   viewBox="0 0 135.46666 135.46667"
   version="1.1"
   id="svg2196"
   inkscape:version="1.2.1 (9c6d41e410, 2022-07-14)"
   sodipodi:docname="QuranIcon.svg"
   xml:space="preserve"
   xmlns:inkscape="http://www.inkscape.org/namespaces/inkscape"
   xmlns:sodipodi="http://sodipodi.sourceforge.net/DTD/sodipodi-0.dtd"
   xmlns="http://www.w3.org/2000/svg"
   xmlns:svg="http://www.w3.org/2000/svg"
   xmlns:serif="http://www.serif.com/"><sodipodi:namedview
     id="namedview2198"
     pagecolor="#ffffff"
     bordercolor="#000000"
     borderopacity="0.25"
     inkscape:showpageshadow="2"
     inkscape:pageopacity="0.0"
     inkscape:pagecheckerboard="0"
     inkscape:deskcolor="#d1d1d1"
     inkscape:document-units="mm"
     showgrid="false"
     inkscape:zoom="0.73851712"
     inkscape:cx="345.96355"
     inkscape:cy="236.96133"
     inkscape:window-width="1920"
     inkscape:window-height="1009"
     inkscape:window-x="-8"
     inkscape:window-y="-8"
     inkscape:window-maximized="1"
     inkscape:current-layer="layer1" /><defs
     id="defs2193" /><g
     inkscape:label="Layer 1"
     inkscape:groupmode="layer"
     id="layer1"><circle
       style="fill:#008080;stroke:#008080;stroke-width:3.64832"
       id="path2373"
       cx="67.73333"
       cy="67.73333"
       r="65.909172" /><g
       style="clip-rule:evenodd;fill:#ffffff;fill-rule:evenodd;stroke-linejoin:round;stroke-miterlimit:2"
       id="g2630"
       transform="matrix(0.14894045,0,0,0.14894045,27.128443,26.216183)"><g
         transform="translate(-118.197,-22.1552)"
         id="g2525"
         style="fill:#ffffff">
        <g
   id="g2523"
   style="fill:#ffffff">
            <g
   id="g2521"
   style="fill:#ffffff">
                <g
   id="path3"
   transform="translate(118.197,22.1552)"
   style="fill:#ffffff">
                    <path
   d="M 335.75,309 H 336 c 2.5,59.17 3.67,91.92 3.5,98.25 -0.67,22.5 -5.17,41.42 -13.5,56.75 -0.67,1 -1.17,1.5 -1.5,1.5 -0.5,0 -0.75,-1.08 -0.75,-3.25 0.17,-1.67 0.42,-3.92 0.75,-6.75 0.83,-6.67 1.42,-14.33 1.75,-23 0.17,-7.83 -1.08,-45.75 -3.75,-113.75 -0.17,-3.33 -0.25,-6.67 -0.25,-10 -3,-87.17 -4.42,-133.83 -4.25,-140 0.17,-7.83 -0.83,-14.42 -3,-19.75 0.17,-3.33 2.67,-10.08 7.5,-20.25 0.5,-1.17 1,-1.75 1.5,-1.75 0.67,0 1.25,0.67 1.75,2 1.17,2.83 3.92,10.67 8.25,23.5 6,17.33 9,27.25 9,29.75 -0.17,1.17 -0.58,1.75 -1.25,1.75 -1.5,-0.17 -4.58,-3.08 -9.25,-8.75 -0.33,-0.33 -0.58,-0.5 -0.75,-0.5 -0.33,0 -0.5,0.67 -0.5,2 0,0.83 1.58,44.92 4.75,132.25 z"
   style="fill:#ffffff"
   id="path2380" />
                </g>
                <g
   id="path5"
   transform="translate(118.197,22.1552)"
   style="fill:#ffffff">
                    <path
   d="m 26.75,167.5 c 0,-0.17 0.5,-0.83 1.5,-2 4.83,-5.33 7.25,-8.92 7.25,-10.75 0,-1.67 -0.75,-2.5 -2.25,-2.5 -0.83,0 -1.58,0.21 -2.25,0.63 -0.67,0.41 -1.08,0.62 -1.25,0.62 H 29.5 l 0.25,-1.5 c 0.83,-3.67 2.67,-5.5 5.5,-5.5 2.5,0 3.75,1.5 3.75,4.5 0,2.33 -0.96,4.92 -2.87,7.75 -1.92,2.83 -4.38,5.33 -7.38,7.5 -1.17,0.83 -1.83,1.25 -2,1.25 z"
   style="fill:#ffffff"
   id="path2383" />
                </g>
                <g
   id="path6"
   transform="translate(118.197,22.1552)"
   style="fill:#ffffff">
                    <path
   d="m 50,450.75 c 0,-0.17 0.5,-0.83 1.5,-2 4.83,-5.33 7.25,-8.92 7.25,-10.75 0,-1.67 -0.75,-2.5 -2.25,-2.5 -0.83,0 -1.58,0.21 -2.25,0.63 -0.67,0.41 -1.08,0.62 -1.25,0.62 h -0.25 l 0.25,-1.5 c 0.83,-3.67 2.67,-5.5 5.5,-5.5 2.5,0 3.75,1.5 3.75,4.5 0,2.33 -0.96,4.92 -2.87,7.75 -1.92,2.83 -4.38,5.33 -7.38,7.5 -1.17,0.83 -1.83,1.25 -2,1.25 z"
   style="fill:#ffffff"
   id="path2386" />
                </g>
                <g
   id="path7"
   transform="translate(121.197,21.1552)"
   style="fill:#ffffff">
                    <path
   d="m 452,313.5 c 0,-0.17 0.58,-0.92 1.75,-2.25 5.67,-6.17 8.5,-10.25 8.5,-12.25 0,-2 -0.92,-3 -2.75,-3 -1,0 -2,0.33 -3,1 l -1,0.5 -0.25,-0.25 0.25,-1.5 c 0.83,-4.33 2.92,-6.5 6.25,-6.5 2.83,0 4.25,1.75 4.25,5.25 0,2.67 -1.08,5.67 -3.25,9 -2.17,3.33 -4.92,6.17 -8.25,8.5 -1.5,1 -2.33,1.5 -2.5,1.5 z"
   style="fill:#ffffff"
   id="path2389" />
                </g>
                <g
   id="path8"
   transform="translate(118.197,22.1552)"
   style="fill:#ffffff">
                    <path
   d="m 319,112.25 c 0,-0.5 0.83,-1.92 2.5,-4.25 8,-11.5 12,-19.17 12,-23 v -0.75 c -0.5,-3 -1.92,-4.5 -4.25,-4.5 -2.5,0 -4.42,0.67 -5.75,2 l -2,1.5 c 0,-0.17 -0.25,-0.25 -0.75,-0.25 0.17,-0.5 0.25,-1.5 0.25,-3 0.67,-7.67 3.92,-11.92 9.75,-12.75 h 1.5 c 4,0 6.33,2.75 7,8.25 l 0.25,2.5 c 0,4 -1.25,8.58 -3.75,13.75 -3,6.5 -7.25,12.33 -12.75,17.5 -2.17,2 -3.5,3 -4,3 z"
   style="fill:#ffffff"
   id="path2392" />
                </g>
                <g
   id="path9"
   transform="translate(118.197,22.1552)"
   style="fill:#ffffff">
                    <path
   d="m 89.5,332.25 c -0.5,0 -0.75,-0.67 -0.75,-2 0,-2.33 -1.33,-6.79 -4,-13.37 -2.67,-6.59 -4.5,-9.88 -5.5,-9.88 -0.83,0 -1.33,0.25 -1.5,0.75 -0.17,0.5 -0.75,0.75 -1.75,0.75 -1.33,0 -2.92,-0.87 -4.75,-2.62 -1.83,-1.75 -2.75,-3.13 -2.75,-4.13 0,-0.5 0.79,-2.08 2.38,-4.75 1.58,-2.67 2.54,-4 2.87,-4 3.83,0 7.29,2.29 10.38,6.88 3.08,4.58 5.29,10.62 6.62,18.12 v 1.25 H 91 c 0.17,0 0.25,-0.08 0.25,-0.25 0,-0.17 0.17,-0.5 0.5,-1 0.5,-4.5 2,-11.08 4.5,-19.75 2.67,-6.33 5.5,-9.5 8.5,-9.5 1.67,0 3.21,1 4.63,3 1.41,2 2.12,3.58 2.12,4.75 0,0.83 -0.25,2.13 -0.75,3.88 -0.5,1.75 -1.17,2.62 -2,2.62 -0.33,0 -1.08,-0.75 -2.25,-2.25 -1.17,-1.5 -2.42,-2.25 -3.75,-2.25 -2.67,0 -5.17,6.5 -7.5,19.5 -1,5.67 -2.17,9.67 -3.5,12 -0.83,1.5 -1.58,2.25 -2.25,2.25 z"
   style="fill:#ffffff"
   id="path2395" />
                </g>
                <g
   id="path10"
   transform="translate(118.197,22.1552)"
   style="fill:#ffffff">
                    <path
   d="m 66.5,234 c -0.67,0 -1,-0.75 -1,-2.25 0,-2.33 -1.29,-6.79 -3.87,-13.37 -2.59,-6.59 -4.38,-9.88 -5.38,-9.88 -0.83,0 -1.37,0.25 -1.62,0.75 -0.25,0.5 -0.88,0.75 -1.88,0.75 -1.17,0 -2.67,-0.87 -4.5,-2.62 -1.83,-1.75 -2.75,-3.13 -2.75,-4.13 0,-0.5 0.79,-2.04 2.38,-4.62 1.58,-2.59 2.54,-3.88 2.87,-3.88 3.83,0 7.29,2.25 10.38,6.75 3.08,4.5 5.2,10.5 6.37,18 l 0.25,0.5 v 0.75 H 68 c 0.17,0 0.29,-0.12 0.38,-0.37 0.08,-0.25 0.2,-0.55 0.37,-0.88 0.5,-4.5 2,-11.08 4.5,-19.75 2.5,-6.33 5.33,-9.5 8.5,-9.5 1.67,0 3.21,1 4.63,3 1.41,2 2.12,3.58 2.12,4.75 0,1 -0.25,2.17 -0.75,3.5 -0.5,2 -1.17,3 -2,3 -0.33,0 -1.08,-0.75 -2.25,-2.25 -1.17,-1.5 -2.42,-2.25 -3.75,-2.25 -2.67,0 -5.17,6.5 -7.5,19.5 -2,9.67 -3.92,14.5 -5.75,14.5 z"
   style="fill:#ffffff"
   id="path2398" />
                </g>
                <g
   id="path11"
   transform="translate(118.197,22.1552)"
   style="fill:#ffffff">
                    <path
   d="m 277.5,265.5 c 21.83,11.17 42.33,15.08 61.5,11.75 8.83,0 17.42,-3.25 25.75,-9.75 2.33,-1.83 3.5,-9 3.5,-21.5 0,-8 -2.08,-38.75 -6.25,-92.25 -3.67,-54 -5.5,-85.67 -5.5,-95 0,-8.83 -1.42,-16 -4.25,-21.5 0,-3.33 2.58,-11.08 7.75,-23.25 0.33,-1.33 0.75,-2 1.25,-2 0.5,0 1.25,0.92 2.25,2.75 1.33,2.83 4.58,11.25 9.75,25.25 0.33,0.83 0.5,1.5 0.5,2 5.17,13.5 8.25,21.92 9.25,25.25 0.83,2.83 1.25,4.67 1.25,5.5 0,3.67 -3.92,1.33 -11.75,-7 -1,-1.33 -1.5,-0.83 -1.5,1.5 0,0.5 1.92,24.42 5.75,71.75 3.17,47.17 4.75,75.33 4.75,84.5 0,26.67 -4.67,47.42 -14,62.25 -8.83,12.17 -18.33,18.42 -28.5,18.75 -29.83,2 -55,-4.33 -75.5,-19 L 230,261.25 c -1.33,-1.33 -2.92,-2.75 -4.75,-4.25 -2,-0.83 -3.17,-1.25 -3.5,-1.25 -0.5,0 -0.08,1.17 1.25,3.5 5.17,9.67 7.75,16.67 7.75,21 0,15.33 -5.33,26.92 -16,34.75 -8.5,5.67 -26.67,13.33 -54.5,23 l -5,2.25 c -14,6 -23.25,11.08 -27.75,15.25 -9.83,7 -23.58,21 -41.25,42 -10.67,12 -21.42,18 -32.25,18 -8.83,0 -16.5,-3.92 -23,-11.75 -7.5,-8.83 -11.25,-19.33 -11.25,-31.5 0,-16.67 7,-38.5 21,-65.5 1.5,-2.83 2.67,-4.25 3.5,-4.25 0.5,0 0.75,0.5 0.75,1.5 0,2.33 -3,11.58 -9,27.75 -6.17,16.33 -9.25,29.17 -9.25,38.5 0,7 1.67,12.58 5,16.75 3.67,4.67 8.58,7 14.75,7 11.17,0 22.5,-5.58 34,-16.75 L 91.75,364 c 3.33,-4.17 6.83,-8.33 10.5,-12.5 9.83,-10.83 22.42,-20.42 37.75,-28.75 8.83,-4.67 24.42,-10.92 46.75,-18.75 15.33,-5.67 26,-10.33 32,-14 2.83,-1.5 3.83,-3.58 3,-6.25 -5.17,-15 -25.67,-34.33 -61.5,-58 L 69.5,166.25 c -4.17,-2.33 -8.42,-4.83 -12.75,-7.5 -0.83,-1 -1.25,-4.08 -1.25,-9.25 0,-6.5 0.92,-13.42 2.75,-20.75 1.83,-8 4.17,-12.92 7,-14.75 19,-14 60.17,-32.67 123.5,-56 C 253.08,34.33 295.5,22.5 316,22.5 c 6,0 10.17,0.92 12.5,2.75 2.33,2.33 3.5,5.83 3.5,10.5 0,10.67 -7.92,24.17 -23.75,40.5 l -9.75,8.5 c -2.83,2.33 -5.67,4.83 -8.5,7.5 -9.67,9.33 -16.17,16.83 -19.5,22.5 -2.33,3.67 -3.92,5.5 -4.75,5.5 -0.5,0 -0.08,-2.58 1.25,-7.75 0.5,-2.67 3.08,-7.5 7.75,-14.5 4.17,-6.5 7.42,-10.75 9.75,-12.75 18.17,-16.17 29.08,-26.83 32.75,-32 v -2 C 317.25,48.42 312.17,47 302,47 286.17,47 248,58.17 187.5,80.5 127,103.33 85.58,121.92 63.25,136.25 c -1.5,1 -1.33,1.92 0.5,2.75 19.67,9.83 39.25,19.92 58.75,30.25 46.17,25 86.92,49.67 122.25,74 10.67,7.33 21.58,14.75 32.75,22.25 z"
   style="fill:#ffffff"
   id="path2401" />
                </g>
                <g
   id="path12"
   transform="translate(118.197,22.1552)"
   style="fill:#ffffff">
                    <path
   d="m 209,174.75 c -0.33,-0.83 -0.67,-2.08 -1,-3.75 l -0.25,-0.5 c -6.17,-15.33 -10.42,-30.42 -12.75,-45.25 -0.33,-2.83 -0.75,-4.5 -1.25,-5 -0.5,-2.33 -1.92,-4.67 -4.25,-7 l 7.75,-14.75 c 1.33,-2.33 2.5,-3.5 3.5,-3.5 0.5,0 1.67,1.17 3.5,3.5 l 19.5,25.25 c 2.83,3.33 4.25,5.67 4.25,7 0,1.33 -0.75,2 -2.25,2 -2.33,0 -6.5,-1.58 -12.5,-4.75 1.83,9.67 5.83,21.75 12,36.25 1.33,3.67 5.92,7.58 13.75,11.75 8,4.67 17.83,8.42 29.5,11.25 4.67,1.5 6.75,4.08 6.25,7.75 l -4.25,18 c -0.5,2 -3.08,2 -7.75,0 -12,-5.5 -26.83,-8.25 -44.5,-8.25 -24.33,0 -53.42,10.67 -87.25,32 -7.5,4.67 -14.75,9.33 -21.75,14 l -30.75,21 C 65.5,279.25 53.67,283 43,283 31.83,283 22,279 13.5,271 4.67,262.67 0.25,252.42 0.25,240.25 c 0,-17.17 8.67,-39.25 26,-66.25 1.83,-2.33 3.17,-3.5 4,-3.5 0.5,0 0.75,0.25 0.75,0.75 0,2.83 -3.75,12.33 -11.25,28.5 -7.33,15.83 -11,28.67 -11,38.5 0,7 2.33,12.58 7,16.75 4.17,4.67 10.17,7 18,7 12.67,0 24.58,-3.25 35.75,-9.75 14.33,-9.83 28.25,-19.58 41.75,-29.25 22.83,-15 44.25,-26.67 64.25,-35 15.33,-6 26.75,-9 34.25,-9 -0.5,-1 -0.75,-2.42 -0.75,-4.25 z"
   style="fill:#ffffff"
   id="path2404" />
                </g>
                <g
   id="path13"
   transform="translate(118.197,22.1552)"
   style="fill:#ffffff">
                    <path
   d="m 278.25,251.25 c 0,-0.33 0.83,-1.42 2.5,-3.25 8.5,-9.17 12.75,-15.33 12.75,-18.5 0,-2.83 -1.33,-4.25 -4,-4.25 -1.5,0 -2.79,0.33 -3.87,1 -1.09,0.67 -1.71,1.08 -1.88,1.25 L 283,227 c 0.17,-0.17 0.33,-0.92 0.5,-2.25 1.33,-6.33 4.5,-9.5 9.5,-9.5 4.17,0 6.25,2.58 6.25,7.75 0,3.83 -1.58,8.25 -4.75,13.25 -3.17,5 -7.33,9.33 -12.5,13 -2,1.33 -3.25,2 -3.75,2 z"
   style="fill:#ffffff"
   id="path2407" />
                </g>
                <g
   id="path14"
   transform="translate(118.197,22.1552)"
   style="fill:#ffffff">
                    <path
   d="m 0,330.5 c 0,-0.33 0.92,-1.5 2.75,-3.5 9,-10 13.5,-16.67 13.5,-20 0,-3.17 -1.42,-4.75 -4.25,-4.75 -1.67,0 -3.08,0.42 -4.25,1.25 -1.17,0.83 -1.83,1.25 -2,1.25 C 5.58,304.58 5.33,304.5 5,304.5 c 0.17,-0.33 0.33,-1.25 0.5,-2.75 1.5,-6.83 4.92,-10.25 10.25,-10.25 4.5,0 6.75,2.83 6.75,8.5 0,4.17 -1.71,8.96 -5.12,14.38 -3.42,5.41 -7.88,10.04 -13.38,13.87 -2.33,1.5 -3.67,2.25 -4,2.25 z"
   style="fill:#ffffff"
   id="path2410" />
                </g>
                <g
   id="path15"
   transform="translate(118.197,22.1552)"
   style="fill:#ffffff">
                    <path
   d="M 104.75,65.75 C 105.58,62.08 107.17,58 109.5,53.5 154.83,36.33 201.42,18.92 249.25,1.25 l 2.25,-0.5 h 0.38 c 0.08,0 0.12,0.17 0.12,0.5 0,0.33 -0.17,0.92 -0.5,1.75 -1.67,4 -2.87,6.33 -3.62,7 -0.75,0.67 -23.21,9.25 -67.38,25.75 -45.17,17 -70.42,27 -75.75,30 z"
   style="fill:#ffffff"
   id="path2413" />
                </g>
                <g
   id="path16"
   transform="translate(118.197,22.1552)"
   style="fill:#ffffff">
                    <path
   d="m 275.75,180.25 c -0.67,0 -1,-0.92 -1,-2.75 0,-3 -1.67,-8.71 -5,-17.12 -3.33,-8.42 -5.67,-12.63 -7,-12.63 -1,0 -1.62,0.33 -1.87,1 -0.25,0.67 -1.05,1 -2.38,1 -1.5,0 -3.46,-1.12 -5.87,-3.37 -2.42,-2.25 -3.63,-4.05 -3.63,-5.38 0,-0.5 1,-2.46 3,-5.87 2,-3.42 3.25,-5.13 3.75,-5.13 5,0 9.46,2.92 13.38,8.75 3.91,5.83 6.62,13.5 8.12,23 l 0.25,0.5 v 1.25 h 0.25 c 0.17,0 0.25,-0.08 0.25,-0.25 0,-0.17 0.17,-0.67 0.5,-1.5 0.83,-5.67 2.83,-14.08 6,-25.25 3.33,-8 6.92,-12 10.75,-12 2.17,0 4.17,1.29 6,3.88 1.83,2.58 2.75,4.62 2.75,6.12 0,1.17 -0.33,2.79 -1,4.88 -0.67,2.08 -1.58,3.12 -2.75,3.12 -0.33,0 -1.25,-0.92 -2.75,-2.75 -1.5,-1.83 -3.08,-2.75 -4.75,-2.75 -3.5,0 -6.75,8.25 -9.75,24.75 -1.17,7.33 -2.58,12.42 -4.25,15.25 -1.17,2.17 -2.17,3.25 -3,3.25 z"
   style="fill:#ffffff"
   id="path2416" />
                </g>
                <g
   id="path17"
   transform="translate(118.197,22.1552)"
   style="fill:#ffffff">
                    <path
   d="M 161.5,472.25 V 472 c 0,-0.17 0.67,-1.17 2,-3 6.33,-8.33 9.5,-13.83 9.5,-16.5 0,-2.67 -1.17,-4 -3.5,-4 -1.33,0 -2.58,0.5 -3.75,1.5 l -1.5,1 -0.5,-0.25 c 0.17,-0.33 0.25,-1 0.25,-2 0.67,-6 3.42,-9 8.25,-9 3.17,0 4.92,2.08 5.25,6.25 v 1.25 c 0,3 -1,6.5 -3,10.5 -2.5,4.67 -5.83,8.75 -10,12.25 -1.5,1.33 -2.5,2.08 -3,2.25 z"
   style="fill:#ffffff"
   id="path2419" />
                </g>
                <g
   id="path18"
   transform="translate(118.197,22.1552)"
   style="fill:#ffffff">
                    <path
   d="m 240.75,322.75 h -1 c -3.17,-0.67 -4.75,-2.42 -4.75,-5.25 0,-4.67 2.75,-9.67 8.25,-15 4.17,-4.17 7.83,-6.83 11,-8 h 0.5 c 0.33,0 0.58,0.08 0.75,0.25 0,0.5 -0.33,1 -1,1.5 -2.5,1.5 -5.25,3.79 -8.25,6.88 -3,3.08 -4.67,5.45 -5,7.12 0.83,-0.5 1.67,-0.75 2.5,-0.75 l 1.5,0.25 c 2.83,0.5 4.25,2 4.25,4.5 0,3 -1.42,5.33 -4.25,7 -1.5,1 -3,1.5 -4.5,1.5 z"
   style="fill:#ffffff"
   id="path2422" />
                </g>
                <g
   id="path19"
   transform="translate(118.197,22.1552)"
   style="fill:#ffffff">
                    <path
   d="m 244.5,105 c -4,0 -6,-2.17 -6,-6.5 0,-4 1.75,-8.58 5.25,-13.75 3.5,-5.17 6.67,-8.58 9.5,-10.25 L 254,74.25 c 0.17,0 0.29,0.08 0.38,0.25 0.08,0.17 0.12,0.33 0.12,0.5 0,0.33 -0.25,0.75 -0.75,1.25 -2.17,2 -4.42,4.79 -6.75,8.38 -2.33,3.58 -3.5,6.29 -3.5,8.12 1,-1 2.25,-1.5 3.75,-1.5 3.5,0 5.25,1.5 5.25,4.5 0,2.83 -0.87,5.08 -2.62,6.75 -1.75,1.67 -3.55,2.5 -5.38,2.5 z"
   style="fill:#ffffff"
   id="path2425" />
                </g>
                <g
   id="path20"
   transform="rotate(154.52076,114.19529,374.24904)"
   style="fill:#ffffff">
                    <path
   d="M 49,370.25 V 370 c 0,-0.33 0.83,-1.42 2.5,-3.25 8.83,-9.67 13.25,-16.08 13.25,-19.25 0,-3 -1.42,-4.5 -4.25,-4.5 -1.5,0 -2.79,0.33 -3.87,1 -1.09,0.67 -1.8,1.08 -2.13,1.25 L 54,345 l 0.25,-1.5 c 1.33,-7.33 4.67,-11 10,-11 4.33,0 6.5,2.67 6.5,8 0,4.17 -1.67,8.83 -5,14 -3.33,5.17 -7.67,9.67 -13,13.5 -2.17,1.5 -3.42,2.25 -3.75,2.25 z"
   style="fill:#ffffff"
   id="path2428" />
                </g>
                <g
   id="path21"
   transform="translate(118.197,22.1552)"
   style="fill:#ffffff">
                    <path
   d="M 277,23.25 V 23 c 0,-0.17 0.5,-0.83 1.5,-2 5.5,-5.83 8.25,-9.75 8.25,-11.75 0,-1.83 -0.83,-2.75 -2.5,-2.75 -1,0 -2,0.33 -3,1 L 280,7.75 280.25,6 c 1,-4 3.08,-6 6.25,-6 2.67,0 4,1.67 4,5 0,2.5 -1.04,5.33 -3.12,8.5 -2.09,3.17 -4.8,5.92 -8.13,8.25 -1.33,1 -2.08,1.5 -2.25,1.5 z"
   style="fill:#ffffff"
   id="path2431" />
                </g>
                <g
   id="path22"
   transform="translate(118.197,22.1552)"
   style="fill:#ffffff">
                    <path
   d="m 306.75,395.5 c -2.5,0 -4.33,-1.58 -5.5,-4.75 -0.67,-1.67 -1,-3.67 -1,-6 0,-2.67 0.42,-5.67 1.25,-9 1.33,-5.67 3.08,-9.83 5.25,-12.5 l 0.5,-0.5 c 0.5,0 0.75,0.25 0.75,0.75 l -0.25,1 c -1.33,2.67 -2.42,6.08 -3.25,10.25 -0.67,2.67 -1,4.75 -1,6.25 0,1.17 0.17,2.08 0.5,2.75 1.17,-2.17 3,-3.25 5.5,-3.25 2,0 3.33,1 4,3 0.5,1.17 0.75,2.33 0.75,3.5 0,1.33 -0.33,2.67 -1,4 -1,2 -2.33,3.33 -4,4 z"
   style="fill:#ffffff"
   id="path2434" />
                </g>
                <g
   id="path23"
   transform="translate(118.197,22.1552)"
   style="fill:#ffffff">
                    <path
   d="m 295.5,352.25 h -0.25 c 0,-0.33 0.42,-1.5 1.25,-3.5 3.17,-8.17 4.75,-13.83 4.75,-17 0,-0.83 -0.08,-1.5 -0.25,-2 -0.67,-1.67 -1.67,-2.5 -3,-2.5 -1.83,0 -3.33,0.83 -4.5,2.5 -0.67,0.83 -1.08,1.25 -1.25,1.25 h -0.5 l -0.5,-4.75 c 0,-4.17 1.67,-6.83 5,-8 l 2,-0.5 c 2.33,0 4.17,1.67 5.5,5 0.67,1.67 1,3.58 1,5.75 0,6.83 -2.33,13.75 -7,20.75 -1.17,1.83 -1.92,2.83 -2.25,3 z"
   style="fill:#ffffff"
   id="path2437" />
                </g>
                <g
   id="path24"
   transform="translate(118.197,22.1552)"
   style="fill:#ffffff">
                    <path
   d="m 167.25,538 c -2.33,-0.17 -3.5,-1.5 -3.5,-4 0,-2.17 1,-4.75 3,-7.75 2,-3 3.83,-5 5.5,-6 h 0.25 l 0.5,0.25 -0.25,0.75 c -1.33,1.17 -2.67,2.79 -4,4.88 -1.33,2.08 -2,3.62 -2,4.62 0.5,-0.5 1.25,-0.75 2.25,-0.75 1.83,0 2.75,0.83 2.75,2.5 0,1.67 -0.5,3 -1.5,4 -1,1 -2,1.5 -3,1.5 z"
   style="fill:#ffffff"
   id="path2440" />
                </g>
                <g
   id="path25"
   transform="translate(118.197,22.1552)"
   style="fill:#ffffff">
                    <path
   d="m 253,516 c 0,-0.33 0.75,-1.33 2.25,-3 7.33,-8 11,-13.33 11,-16 0,-2.5 -1.17,-3.75 -3.5,-3.75 -1.33,0 -2.46,0.29 -3.37,0.88 -0.92,0.58 -1.46,0.95 -1.63,1.12 l -0.5,-0.25 0.25,-1.25 c 1,-6.17 3.75,-9.25 8.25,-9.25 3.67,0 5.5,2.25 5.5,6.75 0,3.33 -1.37,7.21 -4.12,11.63 -2.75,4.41 -6.38,8.12 -10.88,11.12 -1.83,1.33 -2.92,2 -3.25,2 z"
   style="fill:#ffffff"
   id="path2443" />
                </g>
                <g
   id="path26"
   transform="translate(118.197,22.1552)"
   style="fill:#ffffff">
                    <path
   d="m 120.25,394.25 c 1,-3.83 2.58,-7.92 4.75,-12.25 18.17,-6.83 36.83,-13.75 56,-20.75 35.17,-13.17 53.08,-19.75 53.75,-19.75 0.33,0 0.5,0.25 0.5,0.75 l -0.5,1.75 c -1.67,4 -3,6.42 -4,7.25 -31.33,11.5 -68.17,25.83 -110.5,43 z"
   style="fill:#ffffff"
   id="path2446" />
                </g>
                <g
   id="path27"
   transform="translate(118.197,22.1552)"
   style="fill:#ffffff">
                    <path
   d="m 158,160.5 h -0.5 c -16,-3.83 -27.33,-7.67 -34,-11.5 -5.33,-3.17 -8,-7.67 -8,-13.5 l 0.25,-3 c 1.67,2.83 5.42,6 11.25,9.5 2.33,1.33 8.58,3.75 18.75,7.25 9,3.17 14.5,5 16.5,5.5 l 0.25,-1 c 0,-2.83 -2.83,-5.83 -8.5,-9 -4.5,-1.67 -10.58,-4.25 -18.25,-7.75 -5,-3 -7.5,-5.67 -7.5,-8 0,-1.67 1.67,-3.67 5,-6 8,-5 16.33,-7.5 25,-7.5 3.67,0 6.42,0.5 8.25,1.5 1.83,1 2.75,2.17 2.75,3.5 0,1 -0.42,1.92 -1.25,2.75 -2.33,2.33 -3.83,3.5 -4.5,3.5 h -0.25 c 0,-1 -0.92,-2.42 -2.75,-4.25 -0.83,-0.67 -2.75,-1 -5.75,-1 -7.17,0 -13.08,0.92 -17.75,2.75 -1.17,0.5 -1.75,1 -1.75,1.5 0,1 1.92,2.58 5.75,4.75 2.83,1.67 6.5,3.33 11,5 4.5,1.67 7.25,2.75 8.25,3.25 5.17,2.83 7.75,6.25 7.75,10.25 0,2.83 -1.58,5.67 -4.75,8.5 -2.33,2 -4.08,3 -5.25,3 z"
   style="fill:#ffffff"
   id="path2449" />
                </g>
                <g
   id="path28"
   transform="translate(118.197,22.1552)"
   style="fill:#ffffff">
                    <path
   d="M 26.75,248.75 H 26.5 c 0,-0.33 0.67,-1.25 2,-2.75 6.67,-7.17 10,-12 10,-14.5 0,-2.17 -1.08,-3.25 -3.25,-3.25 -1.17,0 -2.17,0.25 -3,0.75 -0.83,0.5 -1.33,0.75 -1.5,0.75 h -0.5 l 0.25,-1.25 c 1,-5.5 3.58,-8.25 7.75,-8.25 3.17,0 4.75,2.08 4.75,6.25 0,3 -1.25,6.46 -3.75,10.38 -2.5,3.91 -5.75,7.29 -9.75,10.12 -1.67,1.17 -2.58,1.75 -2.75,1.75 z"
   style="fill:#ffffff"
   id="path2452" />
                </g>
                <g
   id="path29"
   transform="translate(118.197,22.1552)"
   style="fill:#ffffff">
                    <path
   d="m 131,459.75 c -0.67,-0.17 -1,-1.08 -1,-2.75 0,-2.67 -1.58,-7.96 -4.75,-15.87 -3.17,-7.92 -5.33,-11.88 -6.5,-11.88 -1,0 -1.62,0.29 -1.87,0.88 -0.25,0.58 -0.96,0.87 -2.13,0.87 -1.5,0 -3.37,-1.04 -5.62,-3.12 -2.25,-2.09 -3.38,-3.71 -3.38,-4.88 0,-0.67 0.96,-2.58 2.88,-5.75 1.91,-3.17 3.12,-4.75 3.62,-4.75 4.67,0 8.83,2.75 12.5,8.25 3.67,5.5 6.17,12.67 7.5,21.5 0.17,1 0.29,1.54 0.38,1.63 0.08,0.08 0.2,0.12 0.37,0.12 l 0.75,-1.75 c 0.67,-5.33 2.42,-13.25 5.25,-23.75 3.17,-7.5 6.58,-11.25 10.25,-11.25 2,0 3.88,1.21 5.63,3.63 1.75,2.41 2.62,4.29 2.62,5.62 0,1.17 -0.25,2.58 -0.75,4.25 -0.83,2.33 -1.75,3.5 -2.75,3.5 -0.33,0 -1.21,-0.87 -2.62,-2.62 -1.42,-1.75 -2.88,-2.63 -4.38,-2.63 -3.33,0 -6.42,7.83 -9.25,23.5 -1.17,6.67 -2.5,11.42 -4,14.25 -1,2 -1.92,3 -2.75,3 z"
   style="fill:#ffffff"
   id="path2455" />
                </g>
                <g
   id="path30"
   transform="translate(118.197,22.1552)"
   style="fill:#ffffff">
                    <path
   d="m 236.25,423.25 c -5.83,0 -8.75,-4.83 -8.75,-14.5 0,-11.83 3.42,-24.25 10.25,-37.25 1.83,-3.17 2.92,-4.75 3.25,-4.75 0,0.67 -0.5,2.5 -1.5,5.5 -4.33,13.5 -6.5,23 -6.5,28.5 0,7.33 1.92,11 5.75,11 2.33,0 5,-2.83 8,-8.5 l 1,-1.25 c 0.17,0 0.25,0.5 0.25,1.5 -2.33,13.17 -6.25,19.75 -11.75,19.75 z"
   style="fill:#ffffff"
   id="path2458" />
                </g>
                <g
   id="path31"
   transform="translate(118.197,22.1552)"
   style="fill:#ffffff">
                    <path
   d="M 187.75,546.25 187.5,546 c 0,-0.17 0.75,-1.08 2.25,-2.75 7.33,-8 11,-13.33 11,-16 0,-2.5 -1.17,-3.75 -3.5,-3.75 -1.33,0 -2.46,0.29 -3.37,0.88 -0.92,0.58 -1.46,0.87 -1.63,0.87 l -0.5,-0.25 0.25,-1.25 c 1,-6 3.83,-9 8.5,-9 3.5,0 5.25,2.25 5.25,6.75 0,3.33 -1.37,7.17 -4.12,11.5 -2.75,4.33 -6.38,8.08 -10.88,11.25 -1.67,1.33 -2.67,2 -3,2 z"
   style="fill:#ffffff"
   id="path2461" />
                </g>
                <g
   id="path32"
   transform="translate(118.197,22.1552)"
   style="fill:#ffffff">
                    <path
   d="m 313.5,557.5 -0.25,-0.25 c 0,-0.33 0.92,-1.5 2.75,-3.5 9,-9.67 13.5,-16.17 13.5,-19.5 0,-3 -1.42,-4.5 -4.25,-4.5 -1.67,0 -3.04,0.33 -4.12,1 -1.09,0.67 -1.8,1.08 -2.13,1.25 l -0.5,-0.25 0.25,-1.75 c 1.33,-7.33 4.75,-11 10.25,-11 4.33,0 6.5,2.75 6.5,8.25 0,4.17 -1.67,8.88 -5,14.13 -3.33,5.25 -7.75,9.79 -13.25,13.62 -2.17,1.67 -3.42,2.5 -3.75,2.5 z"
   style="fill:#ffffff"
   id="path2464" />
                </g>
                <g
   id="path33"
   transform="translate(118.197,22.1552)"
   style="fill:#ffffff">
                    <path
   d="m 365,545.5 c -5,0 -7.5,-4.25 -7.5,-12.75 0,-10.17 3,-20.92 9,-32.25 1.5,-2.83 2.42,-4.25 2.75,-4.25 0,0.67 -0.42,2.25 -1.25,4.75 -3.83,11.83 -5.75,20.08 -5.75,24.75 0,6.5 1.67,9.75 5,9.75 2,0 4.33,-2.5 7,-7.5 0.17,-0.5 0.42,-0.83 0.75,-1 l 0.5,0.5 -0.25,0.75 c -2,11.5 -5.42,17.25 -10.25,17.25 z"
   style="fill:#ffffff"
   id="path2467" />
                </g>
                <g
   id="path331"
   serif:id="path33"
   transform="matrix(0.724165,0.283767,-0.283767,0.724165,302.098,-6.64195)"
   style="fill:#ffffff">
                    <path
   d="m 365,545.5 c -5,0 -7.5,-4.25 -7.5,-12.75 0,-10.17 3,-20.92 9,-32.25 1.5,-2.83 2.42,-4.25 2.75,-4.25 0,0.67 -0.42,2.25 -1.25,4.75 -3.83,11.83 -5.75,20.08 -5.75,24.75 0,6.5 1.67,9.75 5,9.75 2,0 4.33,-2.5 7,-7.5 0.17,-0.5 0.42,-0.83 0.75,-1 l 0.5,0.5 -0.25,0.75 c -2,11.5 -5.42,17.25 -10.25,17.25 z"
   style="fill:#ffffff"
   id="path2470" />
                </g>
                <g
   id="path34"
   transform="translate(118.197,22.1552)"
   style="fill:#ffffff">
                    <path
   d="m 413.75,524.5 c -0.5,0 -0.75,-0.67 -0.75,-2 0,-2.17 -1.25,-6.37 -3.75,-12.62 -2.5,-6.25 -4.25,-9.38 -5.25,-9.38 -0.83,0 -1.33,0.21 -1.5,0.63 -0.17,0.41 -0.75,0.62 -1.75,0.62 -1.17,0 -2.62,-0.83 -4.37,-2.5 -1.75,-1.67 -2.63,-3 -2.63,-4 0,-0.33 0.75,-1.79 2.25,-4.37 1.5,-2.59 2.42,-3.88 2.75,-3.88 3.67,0 6.96,2.21 9.88,6.63 2.91,4.41 4.95,10.12 6.12,17.12 0.17,0.67 0.25,1.08 0.25,1.25 h 0.25 c 0.17,-0.17 0.33,-0.58 0.5,-1.25 0.67,-4.17 2.17,-10.42 4.5,-18.75 2.33,-6 5,-9 8,-9 1.5,0 2.96,0.96 4.38,2.88 1.41,1.91 2.12,3.37 2.12,4.37 0,0.83 -0.25,2.08 -0.75,3.75 -0.5,1.67 -1.17,2.5 -2,2.5 -0.33,0 -1.04,-0.71 -2.12,-2.12 -1.09,-1.42 -2.21,-2.13 -3.38,-2.13 -2.67,0 -5.08,6.17 -7.25,18.5 -1.67,9.17 -3.5,13.75 -5.5,13.75 z"
   style="fill:#ffffff"
   id="path2473" />
                </g>
                <g
   id="path35"
   transform="translate(118.197,28.1552)"
   style="fill:#ffffff">
                    <path
   d="m 457,435.75 c 0,-0.33 0.67,-1.25 2,-2.75 7.33,-8 11,-13.33 11,-16 0,-2.67 -1.17,-4 -3.5,-4 -1.17,0 -2.21,0.33 -3.12,1 -0.92,0.67 -1.55,1 -1.88,1 l -0.5,-0.25 0.25,-1.5 c 1.17,-5.83 4,-8.75 8.5,-8.75 3.67,0 5.5,2.25 5.5,6.75 0,3.33 -1.42,7.17 -4.25,11.5 -2.83,4.33 -6.5,8.08 -11,11.25 -1.67,1.17 -2.67,1.75 -3,1.75 z"
   style="fill:#ffffff"
   id="path2476" />
                </g>
                <g
   id="path36"
   transform="translate(118.197,22.1552)"
   style="fill:#ffffff">
                    <path
   d="m 445.75,87.25 c -3.33,0 -5,-1.83 -5,-5.5 0,-3.17 1.58,-7 4.75,-11.5 2.67,-4 5.17,-6.75 7.5,-8.25 h 0.5 c 0.33,0 0.5,0.17 0.5,0.5 0,0.33 -0.17,0.67 -0.5,1 -1.83,1.67 -3.71,3.96 -5.62,6.88 -1.92,2.91 -2.88,5.12 -2.88,6.62 0.83,-0.67 1.92,-1 3.25,-1 2.83,0 4.25,1.25 4.25,3.75 0,2.17 -0.75,3.96 -2.25,5.38 -1.5,1.41 -3,2.12 -4.5,2.12 z"
   style="fill:#ffffff"
   id="path2479" />
                </g>
                <g
   id="path37"
   transform="translate(120.197,26.1552)"
   style="fill:#ffffff">
                    <path
   d="m 462.5,383.25 c -4.17,0 -6.25,-3.58 -6.25,-10.75 0,-8.67 2.5,-17.75 7.5,-27.25 l 2.25,-3.75 0.25,0.25 c 0,0.5 -0.42,1.83 -1.25,4 -3.17,10 -4.75,17 -4.75,21 0,5.33 1.42,8 4.25,8 1.67,0 3.58,-2.08 5.75,-6.25 l 1,-1 v 1.25 c -1.83,9.67 -4.75,14.5 -8.75,14.5 z"
   style="fill:#ffffff"
   id="path2482" />
                </g>
                <g
   id="path38"
   transform="translate(118.197,22.1552)"
   style="fill:#ffffff">
                    <path
   d="m 443.5,224 c -5.67,0 -8.5,-5.33 -8.5,-16 0,-3 0.33,-6.25 1,-9.75 0.5,-2.5 2.67,-9.75 6.5,-21.75 2.5,-7.17 3.75,-15.67 3.75,-25.5 L 446,143.25 c -0.5,-13.33 -6.42,-25.67 -17.75,-37 -0.5,-0.5 -0.75,-1 -0.75,-1.5 0,-0.5 1.5,-3.42 4.5,-8.75 0.33,-0.33 0.58,-0.5 0.75,-0.5 0.33,0 0.67,0.17 1,0.5 7,6.83 11.67,13.08 14,18.75 1.83,4.83 3.08,12.58 3.75,23.25 0.33,2.5 0.5,4.83 0.5,7 0,8.33 -2,18.58 -6,30.75 -4,12.17 -6,20.75 -6,25.75 0,7.17 2.08,10.75 6.25,10.75 2.33,0 5,-2.83 8,-8.5 0.5,-1 0.92,-1.5 1.25,-1.5 V 204 c -2.5,13.33 -6.5,20 -12,20 z"
   style="fill:#ffffff"
   id="path2485" />
                </g>
                <g
   id="path1"
   transform="translate(7,60)"
   style="fill:#ffffff">
                    <path
   d="m 467.947,306.905 c -5.17,0 -7.75,-2.5 -7.75,-7.5 0,-3.5 2.08,-8.75 6.25,-15.75 4.17,-7 7.67,-10.5 10.5,-10.5 2.5,0 4.71,1.13 6.63,3.38 1.91,2.25 2.87,5.04 2.87,8.37 0,5 -1.79,9.92 -5.37,14.75 -3.59,4.83 -7.96,7.25 -13.13,7.25 z m 3.75,-10.25 c 6.83,0 10.25,-2 10.25,-6 -0.17,-4.83 -3.42,-7.25 -9.75,-7.25 -1,0 -2.54,1.5 -4.62,4.5 -2.09,3 -3.13,5.08 -3.13,6.25 0.67,1.67 3.08,2.5 7.25,2.5 z"
   style="fill:#ffffff"
   id="path2488" />
                </g>
                <g
   id="path40"
   transform="translate(115.197,15.1552)"
   style="fill:#ffffff">
                    <path
   d="m 344.75,386.25 c 1,-4 2.58,-8.25 4.75,-12.75 17.67,-6.17 36.92,-13 57.75,-20.5 1,-0.33 1.75,-0.5 2.25,-0.5 0.33,0 0.5,0.17 0.5,0.5 0,0.5 -0.17,1.08 -0.5,1.75 -1.67,4 -3,6.42 -4,7.25 -17.5,6.17 -37.75,14.25 -60.75,24.25 z"
   style="fill:#ffffff"
   id="path2491" />
                </g>
                <g
   id="path41"
   transform="translate(118.197,22.1552)"
   style="fill:#ffffff">
                    <path
   d="m 355.25,433.75 c -0.17,0 -0.33,-0.25 -0.5,-0.75 0.33,-2 0.67,-3.87 1,-5.62 0.33,-1.75 3.17,-4.63 8.5,-8.63 -6.67,-2.33 -10,-5.33 -10,-9 0,-4 1.75,-8.08 5.25,-12.25 6.67,-8 12.25,-12 16.75,-12 4,0 6,2.25 6,6.75 0,2.5 -1.08,5.5 -3.25,9 -0.17,0.33 -0.42,0.5 -0.75,0.5 -0.17,0 -0.42,-0.25 -0.75,-0.75 -1.33,-2.67 -3,-4 -5,-4 -1.67,0 -3.58,0.75 -5.75,2.25 -2.17,1.5 -3.25,2.92 -3.25,4.25 0,1.33 1.33,2.71 4,4.13 2.67,1.41 4.83,2.12 6.5,2.12 1.5,0 4.17,-1.08 8,-3.25 1.83,-1.33 3.67,-2.5 5.5,-3.5 l 2.5,-1.75 c 2.17,-1 3.42,-1.5 3.75,-1.5 0.33,0.17 0.5,0.5 0.5,1 l -0.5,2 c -0.83,3.83 -1.92,6.33 -3.25,7.5 -5,3 -15.92,10.25 -32.75,21.75 z"
   style="fill:#ffffff"
   id="path2494" />
                </g>
                <g
   id="path2"
   transform="translate(6,68)"
   style="fill:#ffffff">
                    <path
   d="m 496.197,266.655 c -0.33,0 -0.5,-0.08 -0.5,-0.25 0,-0.83 3.33,-3.17 10,-7 l 26.25,-15.5 c 12.83,-7.83 22.42,-15.08 28.75,-21.75 -8.33,-4.33 -12.5,-8.92 -12.5,-13.75 0,-5.83 2.67,-11.17 8,-16 4.17,-3.83 7.75,-5.75 10.75,-5.75 4.67,0 7,3.33 7,10 0,4.83 -1,10.25 -3,16.25 4.33,2.5 7,4.58 8,6.25 0,2.33 -1.92,6.25 -5.75,11.75 -1,-1.67 -3.58,-3.75 -7.75,-6.25 -4.67,6.5 -10.67,12.42 -18,17.75 -8.17,6.17 -15.75,10.75 -22.75,13.75 -1.5,0.83 -9.5,3.92 -24,9.25 -2.17,0.83 -3.67,1.25 -4.5,1.25 z m 69.75,-56.25 c 0.5,-1.67 0.75,-3.33 0.75,-5 0,-4.83 -1.42,-7.25 -4.25,-7.25 -1,0 -2.37,0.46 -4.12,1.38 -1.75,0.91 -2.63,1.87 -2.63,2.87 0,2 3.42,4.67 10.25,8 z"
   style="fill:#ffffff"
   id="path2497" />
                </g>
                <g
   id="path43"
   transform="translate(118.197,22.1552)"
   style="fill:#ffffff">
                    <path
   d="m 143.25,294 -0.75,-0.25 c -6.83,-5.33 -13.83,-10.25 -21,-14.75 l -0.25,-0.5 8.75,-19 c 0.67,-1 1.25,-1.5 1.75,-1.5 1,0 4.38,1.96 10.13,5.88 5.75,3.91 9.54,6.7 11.37,8.37 l 7,-14.25 c 0.5,-1 1.08,-1.5 1.75,-1.5 1,0 4.92,2.33 11.75,7 6.83,4.67 10.25,7.42 10.25,8.25 0,3.17 -3,9.67 -9,19.5 -0.5,0.67 -1,1 -1.5,1 -0.33,0 -0.58,-0.08 -0.75,-0.25 -6,-4.33 -12.83,-9 -20.5,-14 -2.5,5.83 -5,10.75 -7.5,14.75 -0.5,0.83 -1,1.25 -1.5,1.25 z"
   style="fill:#ffffff"
   id="path2500" />
                </g>
                <g
   id="path44"
   transform="translate(123.197,20.1552)"
   style="fill:#ffffff">
                    <path
   d="m 414.25,349.75 -0.75,-0.25 c -6.83,-5.17 -13.83,-10.08 -21,-14.75 l -0.25,-0.5 c 0,-0.33 3,-6.67 9,-19 0.5,-1 1.08,-1.5 1.75,-1.5 0.83,0 4.17,1.96 10,5.88 5.83,3.91 9.58,6.7 11.25,8.37 l 7,-14.25 c 0.67,-1 1.25,-1.5 1.75,-1.5 1,0 4.96,2.33 11.88,7 6.91,4.67 10.37,7.42 10.37,8.25 0,3.17 -3.08,9.67 -9.25,19.5 -0.5,0.67 -0.92,1 -1.25,1 l -1,-0.25 c -6,-4.33 -12.75,-9 -20.25,-14 -4.83,10.67 -7.92,16 -9.25,16 z"
   style="fill:#ffffff"
   id="path2503" />
                </g>
                <g
   id="path45"
   transform="translate(118.197,22.1552)"
   style="fill:#ffffff">
                    <path
   d="m 196.25,434 -0.75,-0.25 c -6.83,-5.17 -13.83,-10.08 -21,-14.75 l -0.25,-0.5 8.75,-19 c 0.67,-1 1.25,-1.5 1.75,-1.5 1,0 4.96,2.38 11.88,7.13 6.91,4.75 10.37,7.45 10.37,8.12 0,3.17 -3.08,9.67 -9.25,19.5 -0.5,0.83 -1,1.25 -1.5,1.25 z"
   style="fill:#ffffff"
   id="path2506" />
                </g>
                <g
   id="path46"
   transform="translate(118.197,22.1552)"
   style="fill:#ffffff">
                    <path
   d="m 406.5,293.5 c -0.5,-0.17 -0.75,-1.42 -0.75,-3.75 0,-1.83 0.17,-4.33 0.5,-7.5 1,-7.33 1.5,-15.83 1.5,-25.5 0,-8.83 -1.83,-38.92 -5.5,-90.25 -3.67,-51.33 -5.5,-80.75 -5.5,-88.25 0,-8.83 -1.33,-16.08 -4,-21.75 0,-3.17 2.5,-10.67 7.5,-22.5 0.67,-1.5 1.25,-2.25 1.75,-2.25 1,0 4.92,9.33 11.75,28 7.33,18.83 11,29.67 11,32.5 0,1.33 -0.42,2 -1.25,2 -1.67,0 -5.17,-3.08 -10.5,-9.25 -0.33,-0.33 -0.58,-0.5 -0.75,-0.5 -0.33,0 -0.5,0.75 -0.5,2.25 0,0.83 1.58,22.92 4.75,66.25 3.17,43.33 4.75,68.5 4.75,75.5 0,21.17 -3.25,39.83 -9.75,56 -2.5,5.83 -4.17,8.83 -5,9 z"
   style="fill:#ffffff"
   id="path2509" />
                </g>
                <g
   id="path47"
   transform="translate(118.197,22.1552)"
   style="fill:#ffffff">
                    <path
   d="m 147.5,512 c -34.17,0 -57.75,-16.75 -70.75,-50.25 -2.5,-6.5 -3.75,-14.83 -3.75,-25 0,-17 2.83,-32.75 8.5,-47.25 0.83,-2.33 1.75,-3.5 2.75,-3.5 0.5,0 0.75,0.58 0.75,1.75 l -0.25,2.75 c -4,16.5 -6,27.42 -6,32.75 0,13.83 4.58,26.58 13.75,38.25 12.67,15.5 30.92,23.25 54.75,23.25 20.83,0 43,-4.92 66.5,-14.75 18.83,-7.83 35.83,-17.67 51,-29.5 13.5,-10.5 20.25,-18.08 20.25,-22.75 0,-0.67 -2.75,-6.58 -8.25,-17.75 -6.83,-13 -11.83,-25.67 -15,-38 -1.33,-4.17 -2.87,-7 -4.62,-8.5 -1.75,-1.5 -2.63,-3.08 -2.63,-4.75 0,-1.17 1.25,-7.83 3.75,-20 0.5,-2.17 1.08,-3.25 1.75,-3.25 0.83,0 1.75,0.5 2.75,1.5 3.5,3.83 10.92,11.42 22.25,22.75 1.83,1.83 2.75,3.25 2.75,4.25 0,1.33 -1.08,2 -3.25,2 -2.33,0 -5.83,-0.75 -10.5,-2.25 0.33,1.5 4.08,9.5 11.25,24 5.83,11.83 8.75,22 8.75,30.5 0,17 -3.75,29.83 -11.25,38.5 -12.17,14 -29.83,27.58 -53,40.75 -29.5,16.33 -56.92,24.5 -82.25,24.5 z"
   style="fill:#ffffff"
   id="path2512" />
                </g>
                <g
   id="path0"
   transform="translate(6,68)"
   style="fill:#ffffff">
                    <path
   d="m 546.197,396.405 c 7.33,7.33 16.17,11 26.5,11 8.83,0 17.42,-3.25 25.75,-9.75 2.33,-2.33 3.5,-9.75 3.5,-22.25 0,-7.5 -3.25,-55.67 -9.75,-144.5 -6.5,-89 -9.75,-138.17 -9.75,-147.5 0,-8.83 -1.42,-16 -4.25,-21.5 0,-3.33 2.58,-10.83 7.75,-22.5 0.5,-1.33 0.92,-2 1.25,-2 1,0 1.75,0.67 2.25,2 1.33,3.33 4.83,11.75 10.5,25.25 5,14.83 8.25,23.92 9.75,27.25 0.5,2.83 0.75,4.67 0.75,5.5 0,4.17 -3.75,1.83 -11.25,-7 -1,-1.33 -1.5,-0.83 -1.5,1.5 0,0.5 2.83,41.92 8.5,124.25 6,82.33 9,128.17 9,137.5 0,26.17 -4.67,46.92 -14,62.25 -7.83,12.5 -17.33,18.75 -28.5,18.75 -9.83,0 -20.08,-4.42 -30.75,-13.25 -5.67,-4.67 -10.08,-9.75 -13.25,-15.25 l -30,13.25 c -14,5.5 -24.5,9.92 -31.5,13.25 -13.5,6.5 -22.83,11.83 -28,16 -9.33,7 -22.83,20.75 -40.5,41.25 -10.67,12.5 -21.33,18.75 -32,18.75 -9.33,0 -17.25,-4.17 -23.75,-12.5 -7,-8.33 -10.5,-18.58 -10.5,-30.75 0,-16.67 6.75,-38.5 20.25,-65.5 1.33,-2.83 2.5,-4.25 3.5,-4.25 0.5,0 0.75,0.25 0.75,0.75 0,2.67 -3.08,12.17 -9.25,28.5 -6,16.33 -9,29.17 -9,38.5 0,7 1.67,12.58 5,16.75 3.67,4.67 8.75,7 15.25,7 11.17,0 22.33,-5.58 33.5,-16.75 4.17,-5.17 8.33,-10.08 12.5,-14.75 l 10,-11.25 c 9.17,-10.67 21.5,-20.17 37,-28.5 8.83,-5.17 24.42,-12.42 46.75,-21.75 l 22.25,-9 c -3.17,-8.83 -4.75,-17.67 -4.75,-26.5 0,-13.5 2.08,-24.42 6.25,-32.75 4.17,-8.5 9.5,-12.75 16,-12.75 5.5,0 11.08,4.92 16.75,14.75 4.67,8.83 7,16.75 7,23.75 0,18.17 -5.33,33.08 -16,44.75 z m -13.5,-16.75 c 3.83,-1.67 8.25,-4.25 13.25,-7.75 6,-4 9,-6.83 9,-8.5 0,-3 -2.46,-7.75 -7.37,-14.25 -4.92,-6.5 -9.21,-9.75 -12.88,-9.75 -2.83,0 -5.58,1.71 -8.25,5.13 -2.67,3.41 -4,6.7 -4,9.87 0,2.67 1.42,7.25 4.25,13.75 2.67,5.83 4.67,9.67 6,11.5 z"
   style="fill:#ffffff"
   id="path2515" />
                </g>
                <g
   id="path49"
   transform="translate(118.197,22.1552)"
   style="fill:#ffffff">
                    <path
   d="m 527.25,405.75 c -0.67,0 -1,-1.08 -1,-3.25 0,-1.83 0.25,-4.5 0.75,-8 0.83,-7.17 1.25,-15.67 1.25,-25.5 0,-8.67 -1.83,-38.67 -5.5,-90 -3.67,-51.33 -5.5,-80.83 -5.5,-88.5 0,-8.67 -1.33,-15.83 -4,-21.5 0,-3.17 2.5,-10.75 7.5,-22.75 0.67,-1.33 1.33,-2 2,-2 0.33,0 0.92,0.75 1.75,2.25 1.33,3.17 4.71,11.88 10.13,26.13 5.41,14.25 8.62,23.04 9.62,26.37 0.67,2.5 1,4.42 1,5.75 0,1.17 -0.33,1.75 -1,1.75 -1.67,0 -5.17,-3.08 -10.5,-9.25 l -0.75,-0.5 c -0.5,0 -0.75,0.83 -0.75,2.5 0,0.67 1.58,22.71 4.75,66.13 3.17,43.41 4.75,68.54 4.75,75.37 0,21.33 -3.17,40 -9.5,56 -2.33,6 -4,9 -5,9 z"
   style="fill:#ffffff"
   id="path2518" />
                </g>
            </g>
        </g>
    </g></g></g></svg>
